<svg xmlns="http://www.w3.org/2000/svg" viewBox="0 0 300 300" width="500px" height="500px"><defs><style>.cls-1{opacity:0.21;}.cls-2{fill:#e6e6e6;}.cls-3{fill:#fff;}</style></defs><title>m8_2</title><g id="Layer_2" data-name="Layer 2"><g id="Layer_2-2" data-name="Layer 2"><circle cx="150" cy="150" r="150"/><g class="cls-1"><ellipse class="cls-2" cx="170.45" cy="134.73" rx="87.55" ry="84"/></g><circle class="cls-3" cx="150" cy="150" r="75"/><path d="M184.8,163.06l.1,1.82v2.66l-.1,1.6-.32,2.34-.43,1.49-.85,2.24-.75,1.49L181,178.83l-1,1.28-1.81,1.81-1.17,1-2.13,1.49-1.49.75-2.56,1-1.71.53-1.81.53-1.81.43-2.45.53-1.6.32-3.94.53-2.56.11-1.59.11-2.45.1h-1.5l-2.45-.1-1.59-.11-2.45-.11-5.33-.64-2.77-.53-1.71-.42-2.34-.75-1.6-.64-2.13-1.07-1.49-.85-2-1.49-1.28-1.06-1.49-1.82-1.07-1.17-1.38-1.81-1-1.38L116.29,173l-.53-1.49-.32-2.34-.11-1.6v-2.66l.21-1.71.43-2.45.53-1.6,1.18-2.24.74-1.38.85-1.17,1-1.17L121.4,152l1.18-.95,1.38-1.39.11-1-.32-.85-.85-1.07-1.18-1.49-1.06-1.6-.75-1.59-.74-1.71-.64-1.7-.43-1.81-.32-1.82-.1-1.59.21-2.35.21-1.6.53-1.81.64-1.7.75-1.71,1-1.59L122,121.3l1.07-1.28,1.49-1.81,1.17-1.17,1.39-1.17,1.49-1,.85-.43,1.81-.74.85-.43,1.71-.64,1.6-.42,2.45-.75,1.6-.43,1.59-.32,1.6-.1,2.67-.22h4.79l2.66.22,3.31.21,3.62.64,1.92.43,5.22,1.59,1.6.64,2.23,1,1.49.75,2,1.28,1.49,1,1.38,1.17,1.18,1.28,1.49,1.91,1,1.39.85,1.6.64,1.7.53,1.81.21,1.71.22,2.45v1.59l-.11,1.6-.32,1.6-.74,2.35-.75,1.49-1.07,1.59L179,144.74l-1.28,1.17-1,1.07-.32.85.32.85,1,1,1.28,1.17,1.17,1.28,1.92,2.88.85,1.49.86,2.24.42,1.7Zm-27.49,7.78,1.6-.64.64-.53,1.38-1.17.53-.75.86-1.7.21-.86v-1.81l-.11-.74-.74-1.49-.64-.75-1.39-1.17-.74-.43-1.6-.85-2.13-.75-1.6-.42-2.45-.32-1.6-.11-2.45.22-1.6.21-2.45.53-1.6.64-.74.53-1.28,1.18-.64.63-.75,1.5-.42,1.59-.11,1.5.21.63.64,1.6.43.75,1.28,1.38,1.38,1.07,1.5.74,1.81.54,1.81.42,2.66.11h1.71l2.34-.11,1.6-.32Zm-16.2-40.7-.64.75-.85,1.38-.53,1.5v1.49l.11.74.74,1.39.53.64,1.18,1.17.74.43,1.49,1,.75.43,1.7.64,2.56.43,1.71.1,1.59-.1,1.6-.22,2.35-.85,1.27-.64.64-.42,1-1.07.54-.53.63-1.39.43-1.6.11-1.49-.22-.74-.53-1.39-.74-1.28-1.6-1.59-1.39-.75-1.6-.53-1.59-.43-2.35-.11h-1.6l-1.59.11-1.6.43-2.24.74-1.28.75Z"/></g></g></svg>